<?xml version="1.0" encoding="UTF-8" standalone="no"?>
<svg width="295px" height="153px" viewBox="0 0 295 153" version="1.1" xmlns="http://www.w3.org/2000/svg" xmlns:xlink="http://www.w3.org/1999/xlink" xmlns:sketch="http://www.bohemiancoding.com/sketch/ns">
    <!-- Generator: Sketch 3.1 (8751) - http://www.bohemiancoding.com/sketch -->
    <title>data-set- + Set</title>
    <desc>Created with Sketch.</desc>
    <defs></defs>
    <g id="Page-1" stroke="none" stroke-width="1" fill="none" fill-rule="evenodd" sketch:type="MSPage">
        <g id="data-set--+-Set" sketch:type="MSLayerGroup" transform="translate(-9.000000, -54.000000)">
            <g id="data-set-" transform="translate(273.000000, 176.000000)" sketch:type="MSShapeGroup">
                <path d="M15.5,31 C24.0604136,31 31,24.0604136 31,15.5 C31,6.93958638 24.0604136,0 15.5,0 C6.93958638,0 0,6.93958638 0,15.5 C0,24.0604136 6.93958638,31 15.5,31 Z M15.5,26.3678161 C21.5021291,26.3678161 26.3678161,21.5021291 26.3678161,15.5 C26.3678161,9.49787091 21.5021291,4.63218391 15.5,4.63218391 C9.49787091,4.63218391 4.63218391,9.49787091 4.63218391,15.5 C4.63218391,21.5021291 9.49787091,26.3678161 15.5,26.3678161 Z" id="Oval-2" fill="#D8D8D8"></path>
                <circle id="Oval-1" fill="#757575" cx="15.6781609" cy="15.728046" r="7.83908046"></circle>
            </g>
            <text id="Set" sketch:type="MSTextLayer" font-family="Avenir Next" font-size="200" font-weight="normal" fill="#757575">
                <tspan x="0" y="200">Set</tspan>
            </text>
        </g>
    </g>
</svg>